<svg id="_0197_adventure" xmlns="http://www.w3.org/2000/svg" viewBox="0 0 500 500" data-imageid="adventure-23" imageName="Adventure" class="illustrations_image" style="width: 214px;"><defs><style>.cls-1_adventure-23{opacity:.08;}.cls-2_adventure-23{opacity:.31;}.cls-3_adventure-23{opacity:.3;}.cls-4_adventure-23{opacity:.46;}.cls-5_adventure-23{opacity:.68;}.cls-6_adventure-23{fill:#f4a28c;}.cls-6_adventure-23,.cls-7_adventure-23,.cls-8_adventure-23,.cls-9_adventure-23,.cls-10_adventure-23,.cls-11_adventure-23,.cls-12_adventure-23,.cls-13_adventure-23,.cls-14_adventure-23{stroke-width:0px;}.cls-7_adventure-23{fill:#24285b;}.cls-8_adventure-23{fill:#c9c9c9;}.cls-9_adventure-23{fill:#ce8172;}.cls-10_adventure-23{fill:#fff;}.cls-11_adventure-23{fill:#ffd200;}.cls-12_adventure-23{fill:#e6e6e6;}.cls-13_adventure-23{fill:#000001;}.cls-14_adventure-23{fill:#68e1fd;}</style></defs><g id="bg_adventure-23"><g class="cls-3_adventure-23"><path class="cls-12_adventure-23" d="M106.31,71.93C61.58,100.25,21.25,144.22,14.11,206.94c-6.02,52.85,8.37,111.25,93.02,127.89,164.73,32.38,319.01,41.6,358.39-45.74,39.38-87.35,21.58-216.3-56.32-246.65-62.35-24.29-215.06-26.1-302.88,29.5Z"/></g><circle class="cls-12_adventure-23" cx="81.3" cy="292.72" r="6.63"/><circle class="cls-12_adventure-23" cx="433.62" cy="158.96" r="6.63"/><circle class="cls-12_adventure-23" cx="252.05" cy="140.89" r="6.63"/><circle class="cls-12_adventure-23" cx="373.14" cy="306.53" r="4.31"/><circle class="cls-12_adventure-23" cx="38.93" cy="216.57" r="4.31"/><circle class="cls-12_adventure-23" cx="117.11" cy="107.48" r="4.31"/><circle class="cls-12_adventure-23" cx="198.62" cy="74.07" r="4.31"/><circle class="cls-12_adventure-23" cx="320.78" cy="81.96" r="4.31"/><circle class="cls-12_adventure-23" cx="446.47" cy="254.41" r="4.31"/><circle class="cls-12_adventure-23" cx="154.68" cy="271.26" r="4.31"/><circle class="cls-12_adventure-23" cx="405.07" cy="68.42" r="4.31"/></g><g id="rocks_adventure-23"><polygon class="cls-12_adventure-23" points="100.22 453.68 417.6 453.68 391 371.07 300.74 351 257.4 303.66 148.57 311.98 100.22 453.68"/><polygon class="cls-8_adventure-23" points="34.63 453.68 87.68 363.89 175.86 391.97 271.59 400.98 287.83 453.68 34.63 453.68"/></g><g id="person_flag_adventure-23"><path class="cls-11_adventure-23" d="M312.24,130.58s0-19.28,16.87-20.1,78.72-4.95,88.32,26.69c9.6,31.64,3.58,115.16-36.74,130.52-40.32,15.36-83.74-9.6-83.74-9.6,0,0,31.53-62.55,15.29-127.51Z"/><path class="cls-14_adventure-23 targetColor" d="M324.95,126.67s-24.73,2.14-38.49,14.94c-13.76,12.8-10.56,73.6-87.68,70.08v12.16s94.4,7.04,109.44-47.04l16.73-50.14Z" style="fill: rgb(104, 225, 253);"/><g class="cls-4_adventure-23"><path class="cls-10_adventure-23" d="M324.95,126.67s-24.73,2.14-38.49,14.94c-13.76,12.8-10.56,73.6-87.68,70.08v12.16s94.4,7.04,109.44-47.04l16.73-50.14Z"/></g><path class="cls-6_adventure-23" d="M337.16,88.97s-1.88,9.07-1.06,15.35c.33,2.55,2.71,4.37,5.25,4,3.16-.46,7.29-1.99,8.89-6.73l3.7-7.71s2.15-4.91-2.59-9.26-13.31-1.23-14.18,4.35Z"/><polygon class="cls-6_adventure-23" points="353.27 95.27 354.47 125.6 337.71 125.07 343.56 103.21 353.27 95.27"/><path class="cls-7_adventure-23" d="M347.98,78.63c1.48.03,2.57,1.56,3.72,2.4,2.8,2.05,4.23,5.48,3.76,8.92l-1.25,11.83s-4.9,1.37-7.25-3.39c-2.35-4.75,1-8.42,1-8.42-4.01.26-6.96-.08-8.56-.35-.95-.16-1.89-.43-2.73-.9,0,0-3.96-10.36,11.32-10.09Z"/><path class="cls-6_adventure-23" d="M346.01,98s.49-3.53,3.12-2.94c2.63.59,1.95,5.7-1.72,5.75l-1.4-2.8Z"/><path class="cls-6_adventure-23" d="M336.27,94.74l-2.98,3.24c-.74.8-.39,2.09.65,2.42l3.44,1.08-1.1-6.74Z"/><g class="cls-2_adventure-23"><path class="cls-9_adventure-23" d="M342.08,107.94s3.15-.26,5.76-2.57c0,0-.89,5.48-7.59,10.21l1.83-7.64Z"/></g><path class="cls-14_adventure-23 targetColor" d="M354.47,125.6l-16.76-.53s-44.91.71-47.71,33.44c-2.79,32.73,16.37,58.28,9.98,83.82l60.96,7.78s99.9-100.39-6.47-124.52Z" style="fill: rgb(104, 225, 253);"/><g class="cls-1_adventure-23"><path class="cls-13_adventure-23" d="M345.88,160.27s-1.45,12.06,1.39,24.51c3.92,17.16-.23,35.16-11.73,48.49l-10.58,12.26,35.99,4.6s27.41-29.96,32.47-44.27c5.05-14.31-6.15-30.43-6.15-30.43l-41.38-15.15Z"/></g><path class="cls-7_adventure-23" d="M340.25,247.48h0l-40.27-5.14h-1.07c-21.15.21-40.13,13.03-48.21,32.57l-9.69,23.44,7.68,3.36,14.1-17.83c8.6-10.87,22.03-16.77,35.85-15.74l16.77,1.25c12.98.97,23.95,10.26,26.73,22.98,6.02,27.6,5.7,61.25,5.7,61.25h11.21l1.88-103.5-20.69-2.64Z"/><path class="cls-14_adventure-23 targetColor" d="M354.45,150.19c6.5-13,23.32-16.91,35.36-8.77,20.55,13.88,50.65,41.55,42.02,80.79-12.8,58.24-80,33.28-80,33.28v-13.44s52.48,10.88,49.28-26.24c-2.67-30.93-60.24-38.47-46.66-65.62Z" style="fill: rgb(104, 225, 253);"/><g class="cls-4_adventure-23"><path class="cls-10_adventure-23" d="M354.45,150.19c6.5-13,23.32-16.91,35.36-8.77,20.55,13.88,50.65,41.55,42.02,80.79-12.8,58.24-80,33.28-80,33.28v-13.44s52.48,10.88,49.28-26.24c-2.67-30.93-60.24-38.47-46.66-65.62Z"/></g><path class="cls-6_adventure-23" d="M351.84,245.61s-15.21-4.5-14.13,5.44c1.08,9.94,14.13,4.43,14.13,4.43v-9.87Z"/><path class="cls-11_adventure-23" d="M385.02,133.74c-4.8-4.07-11.33-5.42-17.49-4.13-7.96,1.67-19.26,5.78-22.37,15.85-4.94,16,17.9,64.7,52.8,60.09,0,0-11.66-16.57-22.54-25.85s-23.98-45.41,12.65-39.35c0,0,1.52-2.74-3.05-6.61Z"/><g class="cls-1_adventure-23"><path class="cls-13_adventure-23" d="M385.02,133.74c-4.8-4.07-11.33-5.42-17.49-4.13-7.96,1.67-19.26,5.78-22.37,15.85-4.94,16,17.9,64.7,52.8,60.09,0,0-11.66-16.57-22.54-25.85s-23.98-45.41,12.65-39.35c0,0,1.52-2.74-3.05-6.61Z"/></g><path class="cls-7_adventure-23" d="M198.77,211.69s-15.84-3.52-15.36,6.08c.48,9.6,15.36,6.08,15.36,6.08v-12.16Z"/><rect class="cls-7_adventure-23" x="188.77" y="89.09" width="5.36" height="221.32"/><path class="cls-14_adventure-23 targetColor" d="M188.77,94.74s-19.75-9.27-35.11,0c-15.36,9.27-39.36,18.16-60.96,3.15-21.6-15-53.76,0-53.76,0v99.24s32.16-19.4,54.24-5.86c22.08,13.54,45.12.58,61.92-7.58s33.67,1.44,33.67,1.44v-90.39Z" style="fill: rgb(104, 225, 253);"/><polygon class="cls-14_adventure-23 targetColor" points="245.18 282.74 258.72 289.03 248.61 305.36 221.82 308.02 236.86 300.34 245.18 282.74" style="fill: rgb(104, 225, 253);"/><polygon class="cls-14_adventure-23 targetColor" points="346.09 337.46 359.35 337.46 359.35 359.86 369.21 367.47 347.84 362.72 346.09 337.46" style="fill: rgb(104, 225, 253);"/><path class="cls-14_adventure-23 targetColor" d="M335.89,89.13s12.58,3.84,19.65,3.36c0,0,3.96-8.31.61-14.58-2.94-5.5-21.78-11.7-20.27,11.22Z" style="fill: rgb(104, 225, 253);"/><g class="cls-5_adventure-23"><path class="cls-10_adventure-23" d="M335.99,83.3s13.13,4.33,21.06,4.54c0,0-.67,3.33-1.5,4.65,0,0-6.62.66-19.65-3.36,0,0-.3-2.98.1-5.83Z"/></g><path class="cls-11_adventure-23" d="M326.23,126.42s-19.7-1.53-30.26,3.99c-10.56,5.52-29.5,53.1,1.57,77.31,0,0-25.06-68.73,28.69-81.3Z"/><g class="cls-1_adventure-23"><path class="cls-13_adventure-23" d="M326.23,126.42s-19.7-1.53-30.26,3.99c-10.56,5.52-29.5,53.1,1.57,77.31,0,0-25.06-68.73,28.69-81.3Z"/></g><path class="cls-14_adventure-23 targetColor" d="M331.37,125.6s-2.52-6.88,8.44-8.39c10.96-1.52,25.81-.98,22.54,10.43,0,0-15.51,1.47-30.99-2.04Z" style="fill: rgb(104, 225, 253);"/><g class="cls-5_adventure-23"><path class="cls-10_adventure-23" d="M331.37,125.6s-2.52-6.88,8.44-8.39c10.96-1.52,25.81-.98,22.54,10.43,0,0-15.51,1.47-30.99-2.04Z"/></g></g></svg>